# xmcd CD database file
#
# Track frame offsets:
#	150
#	13095
#	28810
#	42405
#	56377
#	70222
#	84877
#	102485
#	117602
#	135365
#
# Disc length: 2038 seconds
#
# Revision: 0
# Processed by: cddbd v1.5.2PL0 Copyright (c) Steve Scherf et al.
# Submitted via: CDex 1.70beta3
#
DISCID=8307f40a
DTITLE=King Fleming Trio - Misty Night
DYEAR=1960
DGENRE=Jazz
TTITLE0=Overt
TTITLE1=Should I
TTITLE2=Teach Me Tonight
TTITLE3=Oooo, Those Blues
TTITLE4=Misty Night
TTITLE5=When Your Lover Has Gone
TTITLE6=Walk Softly
TTITLE7=Moonlight In Vermont
TTITLE8=Loveliness Of You
TTITLE9=Imported Blues
EXTD=YEAR: 1960
EXTT0=
EXTT1=
EXTT2=
EXTT3=
EXTT4=
EXTT5=
EXTT6=
EXTT7=
EXTT8=
EXTT9=
PLAYORDER=
